<svg id="Layer_2" data-name="Layer 2" xmlns="http://www.w3.org/2000/svg" viewBox="0 0 463.56 671.93"><defs><style>.cls-1{fill:#fff;}</style></defs><title>chill-out-logo</title><path class="cls-1" d="M92,283.42c.46-3.44.83-6.72,1.36-10,.29-1.76,1.58-1.62,2.92-1.23a44.51,44.51,0,0,0,7,1.9c4.42.55,8.88.86,13.34,1,1.89.06,4.28-.2,4.78-2.52s-1.74-3.32-3.4-4.21a37.2,37.2,0,0,0-11.28-4c-6.69-1.16-13.35-2.06-20.17-1.29C81,263.67,76,265.9,71,268.36a7.29,7.29,0,0,0-2,1.8c-1.76,2-1.78,3.34-.09,5.48a24,24,0,0,0,11,7.46,72.81,72.81,0,0,0,33.49,4.08c7.29-.82,14.64-1.26,21.87-2.43a235.9,235.9,0,0,0,23.88-5c10.39-2.82,20.66-6.11,30.87-9.54,7.69-2.58,15.17-5.79,22.81-8.54,9.28-3.33,18.62-6.48,27.94-9.7,10.29-3.55,20.49-7.36,30.89-10.58,14.34-4.43,28.85-8.28,43.21-12.67,4.37-1.33,8.89-1.69,13.26-2.95A103.87,103.87,0,0,1,341.14,223c10.56-1.6,21.21-2.66,31.87-1.63,9.47.91,18.45,3.36,25.91,9.88,5.07,4.42,7.85,10.05,9.69,16.29s1.21,12.68.71,19.12c-.65,8.39-2.68,16.48-4.61,24.61a38.43,38.43,0,0,0-.9,7.09,95.23,95.23,0,0,0-.11,11.33c.27,3.76,1.1,7.46,1.68,11.19A26,26,0,0,1,406,325c0,4.34-1.73,7.83-5.76,9.82A46.75,46.75,0,0,1,380.41,340c-9.83.22-19.49-.74-28.76-4.16a40.14,40.14,0,0,1-8.14-4.36c-3.23-2.15-4.06-5.82-2.57-9.43a17.74,17.74,0,0,0,1.31-3.53,3.09,3.09,0,0,1,3-2.75,84.28,84.28,0,0,1,27.71,1,5.4,5.4,0,0,1,1.13.59c.12,3.41-.92,6.68-2.09,9.88-.18.5-1.52.88-2.27.8-1.57-.19-3.1-.8-4.67-1.11-3.6-.7-7.19-1.54-10.82-1.91a27,27,0,0,0-6.81.5c-1.63.25-3.16,1.05-3.35,3-.16,1.73,1,2.76,2.41,3.45a25.23,25.23,0,0,0,4.75,2,85,85,0,0,0,33.4,2.32A21.52,21.52,0,0,0,396,330.82c2.38-2.14,2.6-4.16.61-6.64a17.74,17.74,0,0,0-4.52-4.13,56.2,56.2,0,0,0-30.89-7.87A139,139,0,0,0,334,315.89a285,285,0,0,0-36.57,10.79c-9.25,3.38-18.34,7.19-27.54,10.72-12.08,4.64-24.22,9.15-36.3,13.8-7.38,2.83-14.68,5.88-22.06,8.71-8.35,3.19-16.77,6.2-25.14,9.37-7.82,3-15.6,6-23.4,9a27,27,0,0,1-11,1.91c-12.15-.46-24.34-.36-36.19,3a61,61,0,0,0-11.23,4.16,40,40,0,0,1-23.41,3.84,14.39,14.39,0,0,1-11.63-8.7c-2.18-4.78-4-9.72-5.77-14.68-1.18-3.33-1.89-6.82-2.93-10.2-.78-2.51-2-4.9-2.6-7.44-1.67-6.91-1-14-.3-20.89.64-6.12,2.14-12.15,3.31-18.22a72.43,72.43,0,0,0,1.27-18.77,102.54,102.54,0,0,0-2.18-16,10.59,10.59,0,0,1,7-12.07,53,53,0,0,1,13.31-3.13,82.11,82.11,0,0,1,31.3,3.14,28,28,0,0,1,10.63,6.09,7.16,7.16,0,0,1,1.82,8.7,7.35,7.35,0,0,0-.8,2.24c-.18,2.21-1.76,3-3.5,3.12-8.91.41-17.85,1.48-26.71-.5A12.6,12.6,0,0,1,92,283.42Z"/><path class="cls-1" d="M298.14,453.9a29.14,29.14,0,0,0-3.09,1.11c-2.76,1.38-5.46,2.89-8.25,4.2a2.78,2.78,0,0,1-2.43,0,1.93,1.93,0,0,1,.26-3,14.37,14.37,0,0,1,2.88-1.87q9.24-4.57,18.54-9a11.78,11.78,0,0,1,1.78-.56c-1.84-2.46-4.17-.81-6.72-.9-.06-5.52,2.48-10.59,2.73-16.2a12.13,12.13,0,0,0-2.44,0,78.53,78.53,0,0,1-20.52,1.62,19.41,19.41,0,0,1-14.71-7.81c-2.3-2.93-3.49-6.42-2.29-10.31a3.86,3.86,0,0,1,3.1-2.86c2.85-.59,4.38.9,3.3,3.58-2.38,5.92,1.4,11.93,8.39,13,7.24,1.09,14.6,1.39,21.9-.33,2.6-.62,4.11-1.62,4.8-4.48A108.36,108.36,0,0,1,310,405.31a89.31,89.31,0,0,1,22.44-32.93c5.47-5.07,11.37-9.62,18.36-12.5a22.81,22.81,0,0,1,10.39-1.95c8.41.61,13.58,7.47,12.13,15.81-1.38,8-5.6,14.53-11,20.23a106.21,106.21,0,0,1-19.65,16.58,88.13,88.13,0,0,1-17.31,8.34c-2.24.81-3.36,1.86-3.62,4.26-.42,3.75-1.19,7.46-1.77,11.2a19.89,19.89,0,0,0,0,2.53c1.64-.45,2.93-.71,4.16-1.17,8.89-3.35,17.76-6.79,26.67-10.09a161.36,161.36,0,0,1,26-7.54c5.64-1.07,11.25-2.45,17-1.3a31,31,0,0,1,6.76,2.36,6.47,6.47,0,0,1,3.59,4.81,12.75,12.75,0,0,1-3,.71c-8.94-.36-17.48,2-26.14,3.69a287.39,287.39,0,0,0-40.35,11.27c-4.75,1.66-9.44,3.51-14.16,5.25-2.16.79-3,2.07-3.19,4.58a142.16,142.16,0,0,1-2.37,15.28C313,475,311,485.18,308.78,495.37c-1.2,5.59-2.54,11.18-4.27,16.63-1.62,5.1-3.83,10-5.89,15.3,1.12.53,2.47,1.07,3.73,1.77,7,3.88,14.07,7.75,19.63,13.73a8.88,8.88,0,0,1,2.49,8.2c-.45,2.21-1.88,3.2-3.93,2.89q-4-.6-2.3-4.34c1.92-4.13,1.8-5.1-1.94-7.73-5.89-4.14-11.6-8.65-18.64-10.84a9.78,9.78,0,0,0-1-.22c-.29.22-.64.37-.8.64-4.39,7.33-10.34,13.32-16.11,19.55-7.92,8.54-17.75,14-27.81,19.18a55,55,0,0,1-11,3.88c-4.51,1.22-9,2.63-13.79,2.67A33.19,33.19,0,0,1,210,572.43c-6.24-3.61-9.31-9.36-8.92-16.65a22.9,22.9,0,0,1,8.42-16.67,70.16,70.16,0,0,1,24.1-13.43c11.86-3.95,24-4.65,36.37-3.82,4.44.3,8.88.65,13.32,1,2-2.78,7.93-26.85,8-32.94-1.87,1.45-3.48,2.61-5,3.87a34.46,34.46,0,0,1-17.61,7.91c-5.54.74-9.15-2-12-6.3-.62-.93-1.1-1.95-1.79-3.18-3.75,5.94-9.16,9.69-14.64,13.15a25.13,25.13,0,0,1-18.52,3.53c-6.45-1.24-10.08-5.62-10.58-12.63a52,52,0,0,1,2.28-19.35c3.49-11.2,9.24-21,18.55-28.25A54.21,54.21,0,0,1,242,442.79c4.31-2.08,8.54-1.31,12.29,1.54,2.07,1.57,3.93,3.43,6.1,5.35l2.88-9.7c4.75,5.38,9.15,10.28,15,14.06-1.2,5.36-2.54,10.67-3.54,16s-1.73,10.62-2.31,16a14.21,14.21,0,0,0,.83,5.36,2.79,2.79,0,0,0,3.53,2,23.11,23.11,0,0,0,5.67-2.27c2.16-1.28,4-3.12,6.12-4.44,3-1.84,4.35-4.6,5-7.83.93-4.26,1.87-8.51,2.72-12.78.58-2.92,1-5.87,1.5-8.81C298,456.41,298,455.52,298.14,453.9Zm-15.25,73.29c-3.26-.46-6.06-1.15-8.86-1.18-10-.11-19.93-.22-29.68,2.62-7.73,2.26-15.36,4.52-22.06,9.25-5.07,3.58-9.93,7.24-13.32,12.66a12,12,0,0,0,.25,13.59,17.59,17.59,0,0,0,11.12,7,39.41,39.41,0,0,0,16.36-.39,64.58,64.58,0,0,0,34-19.48c4.49-4.87,7.1-10.93,10.07-16.72C281.85,532.43,282.12,530,282.89,527.19Zm40.94-112.27c5.5-2.05,10.57-4.23,15.09-7.53,5.49-4,9.86-9.07,13.91-14.55,4.23-5.71,6.12-12.21,7.84-18.84a13,13,0,0,0,.05-5.12c-.68-4.55-4.23-6.85-8.5-5.26a24.16,24.16,0,0,0-7,4.12c-6.15,5.18-10.22,11.93-13.5,19.17-1.27,2.8-2.26,5.73-3.28,8.64A84.9,84.9,0,0,0,323.83,414.92ZM233.41,484a65.7,65.7,0,0,0,.39,7.17c.88,5.55,5.44,7.83,10.44,5.17a62.49,62.49,0,0,0,6.46-4.47c2.16-1.54,3.26-3.42,2.16-6.16a5.61,5.61,0,0,1-.14-2.39A84.13,84.13,0,0,1,257.56,461c1.49-4,.44-7.19-2.05-10.11-2.09-2.44-4.36-2.66-7-.72a19.34,19.34,0,0,0-4.09,4,52.4,52.4,0,0,0-6.83,12.58C235.51,472.36,233.64,477.93,233.41,484Z"/><path class="cls-1" d="M229,374a14.59,14.59,0,0,1,.42,2.95c-.46,4.9-.48,9.92-1.67,14.65-1.43,5.67-4.11,11.09-8.57,15-7.08,6.25-15.49,8.14-24.72,6a88.46,88.46,0,0,1-22.28-8.86,70.13,70.13,0,0,0-31.86-8.85c-6.85-.18-12.7,2.49-18.23,6.22a49.67,49.67,0,0,0-14.37,14.62C103,423.3,98.77,431.25,96.51,440a130.53,130.53,0,0,0-3.33,15.43c-1.36,10.4-1.45,20.79,1.42,31,1.55,5.51,2.5,11.23,5.26,16.32,4.65,8.55,10.31,16.1,19.39,20.67,6.61,3.32,13.49,5.42,20.78,5.36A101,101,0,0,0,157.45,527a53.27,53.27,0,0,0,23.14-9.86,47.9,47.9,0,0,0,8.27-8.62,36.94,36.94,0,0,0,7-14.76,38.29,38.29,0,0,0-2-24.57c-.48-1.12-.89-2.27-1.39-3.55,1.57-.63,2.24.25,2.9,1a22.59,22.59,0,0,1,6.31,13.07c.75,6.34.84,12.69-1.32,18.7a53.8,53.8,0,0,1-7.64,13.74c-5.42,7.32-12.75,12.05-20.59,16.26-7,3.77-14.63,5.15-22.37,6.25-9.51,1.35-18.72-.08-27.91-2.35-15.6-3.85-28.59-12-39.39-23.75C75.64,501,70,492.7,66.48,483.14c-1.72-4.7-2.43-9.77-3.48-14.69A31.71,31.71,0,0,1,61.9,461c.43-12.84,2.84-25.11,9.53-36.45,6.39-10.83,15.17-19.07,25.28-26.18,5.6-3.94,11.92-6.26,18.21-8.78,11.21-4.51,22.86-5.37,34.77-5.16,13.28.23,26.16,3.16,39.18,5.14a107.12,107.12,0,0,0,15.39,1.19c6.69,0,12.05-3.24,16.54-8,2.27-2.42,4.36-5,6.55-7.51A13.2,13.2,0,0,1,229,374Z"/><path class="cls-1" d="M347.67,477.89a24.2,24.2,0,0,0,8.8,15.81c3.46,2.9,7.84,3,12.12,1.78a36.91,36.91,0,0,0,13.86-7.36c2.78-2.37,6.07-4.16,8.15-7.33.35-.55,1.3-.71,2-1.05a7.88,7.88,0,0,1,1,2.33,5.29,5.29,0,0,1-2.24,4.45c-3.21,2.76-6.4,5.58-9.83,8.05-8.56,6.16-18.36,9.11-28.69,10.63-5.17.77-10.26,1.08-15.36-.2-7.38-1.84-12-6.57-13.73-13.86s-.61-14.29,2.32-21.16a37.47,37.47,0,0,1,9.18-13.14c6.38-5.83,13.28-10.85,21.4-14.1a41.16,41.16,0,0,1,18.22-2.61c5.37.35,8.76,3.71,8.89,9.12.26,11-5.2,19.65-15.72,23.82a64.08,64.08,0,0,1-18.33,4.39A18.7,18.7,0,0,0,347.67,477.89Zm.53-5.57c6.17,1.05,10.88-1.3,15.47-4.31,4.08-2.67,5.91-6.59,6.66-11.14s-2.25-7.27-6.83-5.95a17.13,17.13,0,0,0-7.82,4.8C351.36,460.3,349.33,465.9,348.2,472.32Z"/><path d="M152.3,356a26.39,26.39,0,0,1,4,.71,2,2,0,0,1,1.11,1.5,1.92,1.92,0,0,1-1.12,1.44q-7.33,1.83-14.71,3.42c-1,.22-2.39.1-2.44-1.19a3,3,0,0,1,1.55-2.27c2.76-1,3.26-3.06,3.3-5.69.09-5.49.42-11,.63-16.46,0-.66-.09-1.32-.17-2.37l-15.34,2.76c-.23,7.53-.45,14.92-.68,22.47a29.37,29.37,0,0,1,4.35,1.33c.69.32,1.09,1.27,1.62,1.93-.71.47-1.38,1.28-2.12,1.36-4.9.56-9.81,1-14.71,1.43-1.09.1-2.13.07-2.47-1.23s.59-1.84,1.54-2.32a12.23,12.23,0,0,1,1.56-.73,3.26,3.26,0,0,0,2.25-3.47c0-3.2.07-6.41.13-9.61q.36-17,.71-34a15.12,15.12,0,0,0-.15-1.52,20.08,20.08,0,0,1-3.54-1c-.69-.35-1.12-1.23-1.66-1.88.69-.45,1.36-.94,2.09-1.32a2,2,0,0,1,1,0,21.92,21.92,0,0,0,11.41-1.77,6.12,6.12,0,0,1,2-.59,12,12,0,0,1,2.21.24c-.19.81-.36,1.63-.6,2.43a.87.87,0,0,1-.51.44c-3.74,1.16-4,4.13-4,7.37-.06,5.36-.32,10.71-.51,16.55l15.57-2.65V309.13a26.58,26.58,0,0,1-3.77-.89,2.44,2.44,0,0,1-1.43-1.58c0-.51.78-1.19,1.37-1.58a3.12,3.12,0,0,1,1.66-.35,31.53,31.53,0,0,0,12.24-3.1,3.79,3.79,0,0,1,1.63-.46,1.93,1.93,0,0,1,1.4.69,1.7,1.7,0,0,1-.19,1.54,6.88,6.88,0,0,1-2.26,2.05c-2.07.9-2.42,2.58-2.46,4.48q-.21,10.31-.39,20.61c-.06,3.43-.11,6.87-.12,10.31C152.28,345.85,152.3,350.86,152.3,356Z"/><path d="M304.68,275.74a36.83,36.83,0,0,1-4.63,21.69,20.19,20.19,0,0,1-3.64,4.93,71.18,71.18,0,0,1-8.92,7.47,11.34,11.34,0,0,1-14.3-1.16,22.71,22.71,0,0,1-5-6.47c-4.58-9.42-5.7-19.21-2.43-29.35,1.55-4.79,2.72-9.74,5.83-13.84,3.49-4.58,7.85-8,13.58-9.32,5.93-1.32,11.85,1.37,15.4,6.73,2.74,4.14,3.77,8.81,4.09,13.67C304.79,272,304.68,274,304.68,275.74Zm-7.54,3.31c-.21-8.82-.89-15.29-3.77-21.29-2.61-5.46-7.26-5.92-11.68-2.82a18.28,18.28,0,0,0-7.9,12.8c-.75,5.43-1.42,10.89-1.85,16.35a34.34,34.34,0,0,0,3.31,18c2.59,5.31,7.37,7.46,12.35,3.68a18.67,18.67,0,0,0,7.29-11.32C296,288.67,296.62,282.74,297.14,279.05Z"/><path d="M311.65,249.76c-.93-.23-1.79-.48-2.67-.66-1.27-.25-2.75-.5-2.57-2.14.15-1.48,1.61-1.28,2.74-1.37,2.63-.21,5.26-.37,7.86-.74,1.8-.26,3.55-.88,5.33-1.28,1.27-.28,1.28-.24,3,1.16a4.82,4.82,0,0,1-3.47,2.94,3.1,3.1,0,0,0-2.54,3.15c-.85,10.39-1.92,20.76-2.55,31.16A29.33,29.33,0,0,0,318,292.13c1.74,5.62,7.43,7.25,12.15,3.77A14.06,14.06,0,0,0,335,289c2.77-7.85,2.87-15.93,2.69-24.09-.11-4.93.09-9.86.14-14.79,0-1.13,0-2.26,0-3.33-1.73-.7-3.5-1-4.74-2s-1.78-2.57-2.91-4.32c6,3.28,11.85,1.26,17.55.68a2.45,2.45,0,0,1-1.37,3.62c-2,.88-2.46,2.4-2.6,4.37-.51,7.65-1,15.31-1.73,22.94-.7,6.92-1,13.95-4.25,20.38a18,18,0,0,1-12,9.87,8.61,8.61,0,0,1-8.52-2.51,20.16,20.16,0,0,1-3.81-5.24A29.17,29.17,0,0,1,310,279.68c.61-9,1.09-18.06,1.6-27.09C311.69,251.7,311.65,250.8,311.65,249.76Z"/><path d="M365.89,245.42a24.09,24.09,0,0,0-10,1.93c-1.42.53-1.74,1.65-1.94,3a19.36,19.36,0,0,1-1.6,5.74c-.28-.5-.8-1-.8-1.5,0-4.69-.22-9.4.18-14.05a15.26,15.26,0,0,0-.64-7.36,8.27,8.27,0,0,1-.21-1.76,6.15,6.15,0,0,1,2.59,4.55c.61,3.59,2.54,4.89,6.11,4.88,7.67,0,15.35.22,23,.36a4,4,0,0,0,4.36-3c.63-1.73,1.53-3.54,3.68-4.34a8.23,8.23,0,0,1-.8,1.63,6.92,6.92,0,0,0-1.19,4.51c-.07,4.7-.37,9.39-.65,14.09a10.86,10.86,0,0,1-.84,2.4c-2.54-2.64-1.42-5.76-2.27-8.57a20.78,20.78,0,0,0-10.69-2.41c-.68,2-2.81,43.75-2.37,47.05,4.46.63,7.73,3.18,9.72,7.75-1.52,0-2.1-1-2.7-1.83a4.53,4.53,0,0,0-4.14-1.94c-4.12.19-8.24.38-12.36.49-1.28,0-3.15.79-3.55-1s1.37-2.11,2.67-2.57c.74-.27,1.46-.57,2.29-.89C364.45,277,365.16,261.41,365.89,245.42Z"/><path d="M108.34,312.74c.92-1.83.19-4.22,2.72-5.39a16.31,16.31,0,0,1,.68,2.61c.37,4.43-1.26,20.24-2.34,23.09-1.48.21-1.59-.93-1.83-1.9-.71-2.76-1.29-5.57-2.11-8.29-1.55-5.09-5.26-8.25-9.69-8.5a5.76,5.76,0,0,0-4.41,1.45c-3,2.64-5.27,5.67-5.79,9.8-.37,2.95-1.21,5.85-1.35,8.8-.35,7.41.59,14.67,4.28,21.25,2.12,3.78,5,6.87,9.71,7.41a10.58,10.58,0,0,0,7.67-2.47c1.05-.78,2.15-1.52,3.23-2.29,1.63,1.83.86,3.1-.24,4.2a18.42,18.42,0,0,1-9.41,5.4A14.09,14.09,0,0,1,88.14,365a28.69,28.69,0,0,1-8.47-9.79,36.47,36.47,0,0,1-3.75-24.63c1.61-8.06,5.68-14.78,12.91-19.05,3.81-2.25,8.16-2,12.38-1.13a41.19,41.19,0,0,1,4.53,1.58C106.58,312.23,107.43,312.46,108.34,312.74Z"/><path d="M222.22,278.58c-2.34,0-4.24,1.26-5.79-.66.2-1.91,1.74-2.53,3.16-3.19,3.64-1.7,7.22-3.54,11-5,2.47-.93,3.78-2.36,4-4.94a5,5,0,0,1,.53-1.33c1.44,3.27.83,6.72-1.67,8.76a8.36,8.36,0,0,0-3.54,7c.07,4-.11,8-.2,12-.07,2.75-.17,5.5-.25,8.25-.27,8.68-.54,17.37-.82,26.25a7.12,7.12,0,0,0,2,0c5.29-1.71,8.9-5.51,11.87-10,.65-1,.57-2.4.88-3.6s0-2.83,1.72-3.44c1.44.84,1.12,2.22,1.12,3.4,0,4.13-.18,8.26-.08,12.38.07,2.49.54,5,.84,7.45.06.51.17,1,.39,2.23-2.44-2.64-4.36-4.72-4.35-8.25-9.19,2.43-17.48,6.54-26.13,9.54-1.31-1.66-.43-2.75.61-3.38,3.76-2.29,3.91-5.78,3.61-9.59a54.32,54.32,0,0,1,.12-5.84q.51-15.29,1-30.58C222.28,283.71,222.22,281.32,222.22,278.58Z"/><path d="M201.54,283.14c1.32,2.24.46,3.51-.82,4.35-2.53,1.66-3,4-3,6.77-.07,8.57-.29,17.14-.5,25.71-.15,6.19-.37,12.37-.55,18.55,0,.56.1,1.13.19,2.05,3-.11,5.2-1.8,7.22-3.52a25.48,25.48,0,0,0,5.63-5.93c1.31-2.21,1.63-5,2.49-7.92,1.52,1.1,1.48,2.35,1.51,3.54.07,3.32.15,6.64.15,10,0,3.74-.69,7.51,1.26,11.7-2.67-2.29-3.6-3.92-4.82-7.9-2,.72-4.06,1.38-6.06,2.16-5.33,2.07-10.62,4.25-16,6.26-1.27.48-2.93,2-4,.42s.78-2.79,1.86-3.52c2.3-1.57,2.73-3.62,2.78-6.19.16-8.23.53-16.46.78-24.69.18-6.07.3-12.13.43-18.2,0-1,0-2,0-3.43a21.59,21.59,0,0,1-3.81-.06,7.44,7.44,0,0,1-2.13-1.31c.45-.61.78-1.48,1.38-1.77,3.19-1.55,6.44-3,9.69-4.39C197.27,284.88,199.37,284,201.54,283.14Z"/><path d="M167.26,302.23a33.89,33.89,0,0,1-4.35-.38,2,2,0,0,1-1.19-1.39c-.09-.36.45-1,.87-1.31a3.88,3.88,0,0,1,1.63-.49,29.46,29.46,0,0,0,12.72-4.89,13.15,13.15,0,0,1,2.73-1.06,2.69,2.69,0,0,1-1.07,3.88c-3.41,2.13-3.25,5.42-3.32,8.75-.19,8.48-.53,17-.69,25.43-.11,6,0,11.9,0,18.27a19,19,0,0,1,3.34.24,8,8,0,0,1,2.1,1.29c-.54.65-.94,1.62-1.63,1.91-2.85,1.18-5.77,2.17-8.68,3.2-1.94.69-3.89,1.4-5.88,1.93a5.76,5.76,0,0,1-2.19-.3,6.44,6.44,0,0,1,.6-2.13,5.42,5.42,0,0,1,2.09-1.74c2-.92,2.39-2.53,2.4-4.51q.1-13.76.32-27.5c.09-5.72.27-11.45.4-17.17C167.45,303.7,167.34,303.14,167.26,302.23Z"/><path class="cls-1" d="M41.83,598.75H40.27c0-3.65-.1-6.19-.25-7.59,1.83.06,4.71.13,8.63.23q4.77.09,6.36.09t8-.14c3-.06,5.21-.12,6.59-.18-.2,1.71-.34,4.24-.4,7.59H67.53l-.2-2.2c-.13-1.33-.23-2.09-.28-2.27a.71.71,0,0,0-.21-.39,1,1,0,0,0-.42-.19c-.23,0-1.08-.1-2.52-.18s-2.59-.11-3.44-.11H57.38a57.07,57.07,0,0,0-.25,5.94v13.43c0,2.08,0,4.1.08,6.08a6.86,6.86,0,0,0,.36,2.59,1.76,1.76,0,0,0,.94.61,19.7,19.7,0,0,0,3.65.24v1.47c-3-.12-5.28-.19-6.8-.19-.65,0-3.28.07-7.87.19V622.3a20,20,0,0,0,3.66-.24,1.52,1.52,0,0,0,.88-.54,5,5,0,0,0,.41-2.23q0-.48.1-6.51V599.4c0-.65,0-1.35,0-2.12l-.15-3.87H48.57a46.81,46.81,0,0,0-5.17.22,1.17,1.17,0,0,0-.78.3,7.34,7.34,0,0,0-.51,2.51Z"/><path class="cls-1" d="M73.24,595.38V594l6.4.12,5.9-.12v1.34a14.85,14.85,0,0,0-3,.22,1.32,1.32,0,0,0-.74.49,5.18,5.18,0,0,0-.32,2q0,.42-.08,5.94V607c2.75.1,6.09.14,10,.14,3,0,5.45,0,7.26-.14v-2.91c0-1.9,0-3.75-.08-5.57a6.76,6.76,0,0,0-.31-2.35,1.45,1.45,0,0,0-.77-.54,14.94,14.94,0,0,0-3-.22V594q4.48.12,6.17.12l6.11-.12v1.34a15.11,15.11,0,0,0-3,.22,1.29,1.29,0,0,0-.73.49,4.93,4.93,0,0,0-.33,2c0,.28,0,2.25-.09,5.93v9.68c0,1.9,0,3.74.09,5.54a6.35,6.35,0,0,0,.28,2.36,1.37,1.37,0,0,0,.78.56,15.11,15.11,0,0,0,3,.22v1.36q-4.05-.16-6.61-.17c-1.83,0-3.72.06-5.67.17v-1.36a14.94,14.94,0,0,0,3-.22,1.4,1.4,0,0,0,.74-.49,4.85,4.85,0,0,0,.32-2q0-.43.1-5.93V609q-5.87-.13-8.89-.13-3.32,0-8.41.13v4.76c0,1.89,0,3.74.06,5.53a6.63,6.63,0,0,0,.3,2.36,1.37,1.37,0,0,0,.78.56,14.85,14.85,0,0,0,3,.22v1.36q-2.82-.19-5.81-.19-3.27,0-6.49.19v-1.36a14.89,14.89,0,0,0,3-.22,1.38,1.38,0,0,0,.76-.49,5.5,5.5,0,0,0,.31-2q0-.43.08-5.94v-9.68c0-1.89,0-3.75-.06-5.56a6.56,6.56,0,0,0-.3-2.35,1.44,1.44,0,0,0-.78-.54A14.85,14.85,0,0,0,73.24,595.38Z"/><path class="cls-1" d="M109.92,623.77v-1.43a10.75,10.75,0,0,0,2.07-.13,1.81,1.81,0,0,0,.75-.44,6.85,6.85,0,0,0,1-1.68q.38-.78,2.72-5.88l5.23-11.8q.85-1.95,3.66-8.66h1.36l8.94,21c1.45,3.4,2.41,5.54,2.88,6.4a2.18,2.18,0,0,0,.87,1,6,6,0,0,0,2.13.25v1.43c-2.18-.14-3.7-.21-4.57-.21l-6.73.21v-1.43a21.86,21.86,0,0,0,2.84-.14,1.27,1.27,0,0,0,.68-.3.73.73,0,0,0,.18-.5,3.54,3.54,0,0,0-.29-1.19l-2.58-6.4H118.94l-2.28,5.38a6.4,6.4,0,0,0-.61,2.11.72.72,0,0,0,.17.48,1.24,1.24,0,0,0,.71.38,15.75,15.75,0,0,0,2.72.18v1.43c-2.35-.13-4.12-.19-5.29-.19C113,623.58,111.53,623.64,109.92,623.77ZM119.65,612h10.57L125,599.41Z"/><path class="cls-1" d="M157.15,622.43v1.34q-4.46-.16-5.85-.17l-6.47.17v-1.34a14.89,14.89,0,0,0,3-.22,1.38,1.38,0,0,0,.76-.49,5.5,5.5,0,0,0,.31-2c0-.29,0-2.28.08-5.94v-9.69c0-1.9,0-3.75-.06-5.57a6.6,6.6,0,0,0-.3-2.35,1.44,1.44,0,0,0-.78-.54,14.85,14.85,0,0,0-3-.22V594q4,.15,6.17.15t6.15-.15v1.34a14.94,14.94,0,0,0-3,.22,1.36,1.36,0,0,0-.74.49,5.38,5.38,0,0,0-.32,2q0,.42-.08,5.94v9.69c0,1.89,0,3.74.06,5.54a6.58,6.58,0,0,0,.31,2.36,1.39,1.39,0,0,0,.77.56A14.94,14.94,0,0,0,157.15,622.43Z"/><path class="cls-1" d="M206,620.06l-.82,2a20.53,20.53,0,0,1-9.9,2.34,21.42,21.42,0,0,1-6-.81,15.46,15.46,0,0,1-4.86-2.34,14.24,14.24,0,0,1-3.4-3.4,14.56,14.56,0,0,1-2-4.09,16.13,16.13,0,0,1-.69-4.84,14.53,14.53,0,0,1,4.65-11q4.67-4.4,12.71-4.39a25.81,25.81,0,0,1,3.53.22,34.44,34.44,0,0,1,3.95.84c1.56.41,2.51.65,2.86.72a12.92,12.92,0,0,0-.69,2.26,29.86,29.86,0,0,0-.46,4.12h-1.32l0-2.47a3.7,3.7,0,0,0-2.27-3,14.25,14.25,0,0,0-6-1,16.19,16.19,0,0,0-5,.77,9.62,9.62,0,0,0-3.65,2.28,12,12,0,0,0-2.59,3.95,16,16,0,0,0-1,6A13.28,13.28,0,0,0,197,622.14a17.08,17.08,0,0,0,5.31-.8,12,12,0,0,0,3.33-1.72Z"/><path class="cls-1" d="M209.14,595.38V594q3.42.16,6.34.17t5.9-.17v1.34a15,15,0,0,0-3,.22,1.26,1.26,0,0,0-.73.49,5.06,5.06,0,0,0-.34,2q0,.42-.08,5.94v7.74a19,19,0,0,0,.58,5.93,5.42,5.42,0,0,0,1.83,2.38,7.72,7.72,0,0,0,2.59,1.14,14.6,14.6,0,0,0,3.64.43,13.89,13.89,0,0,0,4.16-.58,7.21,7.21,0,0,0,2.73-1.4,5.44,5.44,0,0,0,1.36-1.85,9.88,9.88,0,0,0,.65-2.82,42.9,42.9,0,0,0,.2-4.53v-6.44c0-1.9,0-3.75-.08-5.57a6.56,6.56,0,0,0-.28-2.35,1.47,1.47,0,0,0-.79-.54,15,15,0,0,0-3-.22V594c2.3.11,4,.17,5,.17s2.7-.06,5.21-.17v1.34a14.85,14.85,0,0,0-3,.22,1.39,1.39,0,0,0-.75.49,5.46,5.46,0,0,0-.31,2q0,.42-.08,5.94v7a24.63,24.63,0,0,1-.73,7.22,8.13,8.13,0,0,1-2.64,3.61,10.27,10.27,0,0,1-3.72,1.83,18.36,18.36,0,0,1-5,.64,18.14,18.14,0,0,1-5.58-.76,8.77,8.77,0,0,1-3.6-2,7,7,0,0,1-1.7-2.54,19.81,19.81,0,0,1-.58-5.75v-9.25c0-1.9,0-3.75-.06-5.57a6.76,6.76,0,0,0-.31-2.35,1.45,1.45,0,0,0-.77-.54A15.07,15.07,0,0,0,209.14,595.38Z"/><path class="cls-1" d="M256.48,622.43v1.34c-3-.11-4.93-.17-5.86-.17l-6.46.17v-1.34a15,15,0,0,0,3-.22,1.39,1.39,0,0,0,.75-.49,5.43,5.43,0,0,0,.32-2c0-.29,0-2.28.08-5.94v-9.69c0-1.9,0-3.75-.06-5.57a6.76,6.76,0,0,0-.31-2.35,1.42,1.42,0,0,0-.77-.54,14.94,14.94,0,0,0-3-.22V594q4,.15,6.17.15t6.15-.15v1.34a14.85,14.85,0,0,0-3,.22,1.39,1.39,0,0,0-.75.49,5.46,5.46,0,0,0-.31,2c0,.28,0,2.26-.08,5.94v9.69c0,1.89,0,3.74.06,5.54a6.68,6.68,0,0,0,.3,2.36,1.42,1.42,0,0,0,.78.56A14.85,14.85,0,0,0,256.48,622.43Z"/><path class="cls-1" d="M260.3,622.74a48.88,48.88,0,0,0,.39-6.5h1.43a15.65,15.65,0,0,0,.34,3.6,3.18,3.18,0,0,0,1.16,1.19,9.72,9.72,0,0,0,2.47,1.12,10.1,10.1,0,0,0,3,.49,7.94,7.94,0,0,0,3.89-1,6,6,0,0,0,2.6-2.55,7.29,7.29,0,0,0,.81-3.38,6.34,6.34,0,0,0-.4-2.38,3.67,3.67,0,0,0-1.25-1.62,5.27,5.27,0,0,0-2.07-.87c-.52-.08-1.55-.22-3.1-.42s-2.86-.41-3.95-.65a8.72,8.72,0,0,1-3.2-1.57,6.5,6.5,0,0,1-1.66-2.36,7.76,7.76,0,0,1-.64-3.16,9.11,9.11,0,0,1,1.28-4.66,8.6,8.6,0,0,1,3.81-3.39,12.45,12.45,0,0,1,5.47-1.22,17.48,17.48,0,0,1,3.88.48,17.74,17.74,0,0,1,3.93,1.38,21.15,21.15,0,0,0-.42,2.46c-.09.76-.15,1.88-.19,3.36h-1.42a23.36,23.36,0,0,0-.19-3.51,5.15,5.15,0,0,0-1.42-1.36,9.06,9.06,0,0,0-4.5-1.22,6.47,6.47,0,0,0-4.84,1.85,6.56,6.56,0,0,0-1.81,4.8,5,5,0,0,0,.64,2.75,4.47,4.47,0,0,0,2.33,1.56,21.65,21.65,0,0,0,3.76.74c1.74.23,3.31.48,4.71.74a8.21,8.21,0,0,1,2.91,1.39,6.32,6.32,0,0,1,1.55,2.11,7.28,7.28,0,0,1,.6,3.07,9.46,9.46,0,0,1-3.45,7.25,12.88,12.88,0,0,1-8.93,3.09A17,17,0,0,1,260.3,622.74Z"/><path class="cls-1" d="M296.06,622.43v1.34q-4.46-.16-5.86-.17l-6.46.17v-1.34a15,15,0,0,0,3-.22,1.39,1.39,0,0,0,.75-.49,5.22,5.22,0,0,0,.32-2c0-.29,0-2.28.08-5.94v-9.69c0-1.9,0-3.75-.06-5.57a6.6,6.6,0,0,0-.3-2.35,1.48,1.48,0,0,0-.78-.54,14.85,14.85,0,0,0-3-.22V594q4,.15,6.17.15t6.15-.15v1.34a14.85,14.85,0,0,0-3,.22,1.39,1.39,0,0,0-.75.49,5.46,5.46,0,0,0-.31,2q0,.42-.08,5.94v9.69c0,1.89,0,3.74.06,5.54a6.68,6.68,0,0,0,.3,2.36,1.42,1.42,0,0,0,.78.56A14.85,14.85,0,0,0,296.06,622.43Z"/><path class="cls-1" d="M299.71,623.77v-1.32a8.41,8.41,0,0,0,2.89-.34.8.8,0,0,0,.42-.39,7.57,7.57,0,0,0,.29-2.2q.12-2.76.12-4.77v-17a2.9,2.9,0,0,0-.08-.9,3,3,0,0,0-.75-.9,1.79,1.79,0,0,0-.87-.43,16.49,16.49,0,0,0-2.19-.11V594c2.33.05,3.8.08,4.4.08,1,0,2,0,3-.08l2.62,3.43,4.33,5.33,6.31,7.62c2,2.43,3.65,4.34,4.88,5.73.78.92,1.44,1.65,2,2.18V603c0-1.36-.05-3-.15-4.81a8.54,8.54,0,0,0-.27-2.15.9.9,0,0,0-.44-.4,9.19,9.19,0,0,0-2.87-.31V594c1.65.05,3.31.08,5,.08s3,0,4.33-.08v1.32a9.11,9.11,0,0,0-2.86.31.72.72,0,0,0-.42.42,7,7,0,0,0-.29,2.2c-.09,1.84-.13,3.42-.13,4.74V613.1q0,3,.1,11.4l-2.15-.63-.5-.1a.65.65,0,0,1-.23-.13,8.35,8.35,0,0,1-.8-.83c-1.16-1.32-2-2.31-2.55-3l-2.7-3.41L305.32,598.7v16c0,1.37.05,3,.14,4.83a7.67,7.67,0,0,0,.28,2.14.86.86,0,0,0,.44.42,9.11,9.11,0,0,0,2.86.31v1.32c-1.23-.1-2.58-.15-4.06-.15S301.61,623.67,299.71,623.77Z"/><path class="cls-1" d="M336.94,623.77v-1.32a8.46,8.46,0,0,0,2.89-.34.8.8,0,0,0,.42-.39,8,8,0,0,0,.29-2.2q.12-2.76.12-4.77V604.06c0-1.9,0-3.75-.06-5.57a6.6,6.6,0,0,0-.3-2.35,1.44,1.44,0,0,0-.78-.54,14.85,14.85,0,0,0-3-.22V594l6,.12,6.32-.1c3,0,5.22-.06,6.59-.06a30.24,30.24,0,0,1,3.91.23,17.85,17.85,0,0,0-.46,2.07c0,.12-.15,1.57-.37,4.35h-1.32a23.37,23.37,0,0,0-.27-3.89,9.49,9.49,0,0,0-2.53-.65,37,37,0,0,0-4.69-.29c-.34,0-1.08,0-2.24.08s-2,.1-2.49.15q-.09,2.33-.12,4.35l-.09,7.07c1.63.08,3.13.13,4.5.13a32.15,32.15,0,0,0,4.25-.24,1.21,1.21,0,0,0,.85-.33,4.89,4.89,0,0,0,.34-1.71l.12-1.47H356v.4l-.11,4.35.11,4.87h-1.47l-.06-1.42a4.82,4.82,0,0,0-.28-1.92,1.37,1.37,0,0,0-.91-.53,28.13,28.13,0,0,0-4.62-.25c-.94,0-2.26,0-4,.11q-.1,2.09-.1,6.21c0,2.58,0,4.54.1,5.88q3,.23,6.76.23a29.74,29.74,0,0,0,3.79-.17,9,9,0,0,0,2.09-.56,15.21,15.21,0,0,0,.5-1.76c.31-1.24.51-2.18.61-2.8h1.38a55.4,55.4,0,0,0-.55,7,28.51,28.51,0,0,1-4.37.28l-12.49-.17Z"/><path class="cls-1" d="M423.73,621.14c-1.24.81-2,1.31-2.22,1.48s-1.1.8-2.22,1.64a10.34,10.34,0,0,1-1.82.16,10.6,10.6,0,0,1-3.86-.61,20.17,20.17,0,0,1-5.57-3.07,24.19,24.19,0,0,1-5.51,3,16,16,0,0,1-5.06.75,12.17,12.17,0,0,1-5.86-1.3,8.69,8.69,0,0,1-3.61-3.57,9.43,9.43,0,0,1-1.21-4.51,8.79,8.79,0,0,1,2-5.75,18.08,18.08,0,0,1,6-4.49,15.18,15.18,0,0,1-1.53-6.21,6.32,6.32,0,0,1,.61-2.7,5,5,0,0,1,.7-1.25q.3-.31,2.67-2.19a11.54,11.54,0,0,1,2.25-1.45,5.78,5.78,0,0,1,2.38-.47,4.79,4.79,0,0,1,3.43,1.17,4.26,4.26,0,0,1,1.24,3.26,8.06,8.06,0,0,1-1.75,4.64,19.58,19.58,0,0,1-5.68,4.87,39.55,39.55,0,0,0,4.87,6.74,36.71,36.71,0,0,0,5.71,5.47,8.14,8.14,0,0,0,2.6-5.69,5.6,5.6,0,0,0-.56-2.74,1.52,1.52,0,0,0-1.07-.75,34.25,34.25,0,0,0-4.07-.17l-.23-.3,1.66-2.23a35,35,0,0,0,4.19.21c1.08,0,3.17,0,6.29-.16.87,0,2.41,0,4.62,0a22.49,22.49,0,0,0-.58,3.28,43.9,43.9,0,0,0-7.34-.47,7.28,7.28,0,0,1,.31,2,8.73,8.73,0,0,1-1,4.07,16,16,0,0,1-3.26,4.06,16.58,16.58,0,0,0,9.17,3.07,4.15,4.15,0,0,0,1.19-.15,12.3,12.3,0,0,0,1.78-.81Zm-17.35-1.59q-3.42-3.37-4.65-4.74c-1.12-1.23-2.15-2.46-3.07-3.7s-1.93-2.72-3-4.45a11.33,11.33,0,0,0-3.34,3.13,6.58,6.58,0,0,0-1,3.66,7.88,7.88,0,0,0,1.2,4.08,8.18,8.18,0,0,0,3.23,3.11,9,9,0,0,0,4.28,1.09A11.1,11.1,0,0,0,406.38,619.55Zm-8.09-16.64a12.79,12.79,0,0,0,3.56-3.34,6,6,0,0,0,1.24-3.34,3.1,3.1,0,0,0-.84-2.22,2.65,2.65,0,0,0-1.92-.88,3.78,3.78,0,0,0-1.74.41,2.74,2.74,0,0,0-1.21,1.32,5.67,5.67,0,0,0-.42,2.38A17,17,0,0,0,398.29,602.91Z"/><path class="cls-1" d="M11,671.33V670a10.48,10.48,0,0,0,2.05-.13,1.8,1.8,0,0,0,.75-.39,6.45,6.45,0,0,0,1-1.54q.38-.71,2.7-5.35l5.19-10.74q.86-1.77,3.63-7.88h1.35l8.86,19.1c1.44,3.09,2.4,5,2.87,5.82a2,2,0,0,0,.86.88,6.52,6.52,0,0,0,2.11.23v1.29c-2.16-.12-3.67-.19-4.53-.19l-6.68.19V670a27.63,27.63,0,0,0,2.82-.13,1.41,1.41,0,0,0,.68-.28.64.64,0,0,0,.17-.45,2.73,2.73,0,0,0-.29-1.08L32,662.27H20l-2.26,4.89a5.42,5.42,0,0,0-.6,1.93.63.63,0,0,0,.16.44,1.35,1.35,0,0,0,.71.34,16.79,16.79,0,0,0,2.7.17v1.29c-2.34-.11-4.09-.17-5.26-.17C14.08,671.16,12.62,671.22,11,671.33Zm9.66-10.68H31.16L26,649.17Z"/><path class="cls-1" d="M42.37,648.14v-1.09c1.3,0,2.55.07,3.75.07s2.35,0,3.46-.07q1.64,3.42,3,6l7.06,13.33L66,654.16q2.61-5,3.48-7.11c1.32,0,2.43.07,3.34.07s2.18,0,4-.07v1.09a15.75,15.75,0,0,0-2.69.18,1.22,1.22,0,0,0-.66.4,3.6,3.6,0,0,0-.28,1.66c0,.23,0,1.85-.1,4.86v7.91c0,1.55,0,3.06.08,4.53a5.2,5.2,0,0,0,.27,1.93,1.27,1.27,0,0,0,.69.45,13.77,13.77,0,0,0,2.69.18v1.09q-3.77-.15-5.31-.15c-.83,0-2.67.05-5.51.15v-1.09a14.17,14.17,0,0,0,2.7-.18,1.16,1.16,0,0,0,.65-.4,3.74,3.74,0,0,0,.28-1.66c0-.24,0-1.86.09-4.85V650.6l-6.42,12.34q-1.51,2.89-2.37,4.65c-.41.86-1,2.21-1.86,4.07h-.73a8.61,8.61,0,0,0-.45-1l-1.26-2.48-8.91-17v12c0,1.55,0,3.06.08,4.53a4.78,4.78,0,0,0,.27,1.93,1.27,1.27,0,0,0,.69.45,13.77,13.77,0,0,0,2.69.18v1.09L47,671.2l-4.64.13v-1.09a13.81,13.81,0,0,0,2.68-.18,1.22,1.22,0,0,0,.67-.4A3.9,3.9,0,0,0,46,668c0-.24,0-1.86.08-4.85v-7.91c0-1.55,0-3.07-.06-4.55a5.09,5.09,0,0,0-.27-1.92,1.27,1.27,0,0,0-.69-.45A15.75,15.75,0,0,0,42.37,648.14Z"/><path class="cls-1" d="M77.77,671.33v-1.07a8.22,8.22,0,0,0,2.57-.28.6.6,0,0,0,.37-.32,5.2,5.2,0,0,0,.26-1.8c.08-1.5.12-2.8.12-3.89v-8.73c0-1.55,0-3.07-.06-4.55a5.09,5.09,0,0,0-.27-1.92,1.27,1.27,0,0,0-.69-.45,15.86,15.86,0,0,0-2.69-.18v-1.09l5.31.1,5.62-.08C91,647,93,647,94.18,647a32.17,32.17,0,0,1,3.49.18,11.94,11.94,0,0,0-.41,1.69c0,.11-.14,1.29-.34,3.56H95.75a16.54,16.54,0,0,0-.25-3.18,9,9,0,0,0-2.25-.53,36.44,36.44,0,0,0-4.17-.24c-.3,0-1,0-2,.07l-2.21.12c-.05,1.26-.09,2.45-.11,3.55L84.68,658c1.45.07,2.79.1,4,.1a33.81,33.81,0,0,0,3.78-.18,1.16,1.16,0,0,0,.76-.28,3.81,3.81,0,0,0,.3-1.4l.11-1.2h1.12v.33l-.09,3.55.09,4h-1.3l-.06-1.17a3.77,3.77,0,0,0-.25-1.57,1.25,1.25,0,0,0-.81-.43,27.54,27.54,0,0,0-4.12-.2c-.83,0-2,0-3.54.08-.06,1.14-.09,2.84-.09,5.08s0,3.71.09,4.8q2.68.19,6,.19a28.52,28.52,0,0,0,3.37-.14,8.17,8.17,0,0,0,1.86-.46,9.86,9.86,0,0,0,.45-1.43c.27-1,.45-1.78.54-2.29h1.23a43,43,0,0,0-.48,5.72,28.77,28.77,0,0,1-3.9.22l-11.12-.13Z"/><path class="cls-1" d="M99.29,648.14v-1.09l2.22.05,3.58.09c.7,0,1.8,0,3.29-.07,1.94-.07,3.06-.1,3.37-.1a16.65,16.65,0,0,1,5.19.58,5,5,0,0,1,3.42,4.73,5.52,5.52,0,0,1-.84,2.85,6.64,6.64,0,0,1-2.43,2.36A13.21,13.21,0,0,1,113,659q.47.6,2.19,2.67l4.7,5.67a34.11,34.11,0,0,0,2.35,2.65,1,1,0,0,0,.33.17,5.15,5.15,0,0,0,1.23.09v1.09c-.94-.06-1.77-.1-2.48-.1s-1.63,0-2.7.1c-.8-.85-2.16-2.52-4.06-5-1.05-1.38-2-2.53-2.79-3.46-1.31-1.52-2.55-2.91-3.73-4.15l.19-.51c.64,0,1.13,0,1.47,0a7.82,7.82,0,0,0,5.14-1.47,4.8,4.8,0,0,0,1.75-3.88,4.09,4.09,0,0,0-1.51-3.34,7,7,0,0,0-4.56-1.24,13.66,13.66,0,0,0-3.76.53c0,.62-.09,1.19-.11,1.73,0,.16-.06,1.81-.14,5v7.59c0,1.55,0,3.06.08,4.53a4.94,4.94,0,0,0,.25,1.93,1.3,1.3,0,0,0,.7.45,13.89,13.89,0,0,0,2.68.18v1.09c-1.76-.09-3.38-.13-4.86-.13q-1.78,0-6,.13v-1.09a14,14,0,0,0,2.69-.18,1.3,1.3,0,0,0,.67-.4,4.26,4.26,0,0,0,.28-1.66c0-.24,0-1.86.07-4.85v-7.91c0-1.55,0-3.07-.06-4.55a4.68,4.68,0,0,0-.27-1.92,1.27,1.27,0,0,0-.69-.45A15.75,15.75,0,0,0,99.29,648.14Z"/><path class="cls-1" d="M134.49,670.24v1.09c-2.65-.09-4.39-.13-5.22-.13l-5.75.13v-1.09a13.89,13.89,0,0,0,2.68-.18,1.26,1.26,0,0,0,.67-.4,4.07,4.07,0,0,0,.28-1.66c0-.24,0-1.86.07-4.85v-7.91c0-1.55,0-3.07,0-4.55a5.09,5.09,0,0,0-.27-1.92,1.35,1.35,0,0,0-.69-.45,16,16,0,0,0-2.69-.18v-1.09q3.56.12,5.49.12c1.24,0,3.07,0,5.48-.12v1.09a15.75,15.75,0,0,0-2.69.18,1.3,1.3,0,0,0-.67.4,4.13,4.13,0,0,0-.27,1.66c0,.23,0,1.85-.08,4.86v7.91q0,2.33.06,4.53a4.78,4.78,0,0,0,.27,1.93,1.27,1.27,0,0,0,.69.45A13.77,13.77,0,0,0,134.49,670.24Z"/><path class="cls-1" d="M160.18,668.31l-.72,1.59a20.77,20.77,0,0,1-4.27,1.46,21.6,21.6,0,0,1-4.55.45,20.77,20.77,0,0,1-5.36-.66,14.63,14.63,0,0,1-4.33-1.91,12.37,12.37,0,0,1-3-2.78,11.72,11.72,0,0,1-1.79-3.34,12.16,12.16,0,0,1-.61-4,11.44,11.44,0,0,1,4.14-9q4.16-3.57,11.32-3.58a25.44,25.44,0,0,1,3.14.18,31.48,31.48,0,0,1,3.52.69c1.38.33,2.23.53,2.54.59a9.91,9.91,0,0,0-.61,1.84,23,23,0,0,0-.41,3.37H158v-2a3.06,3.06,0,0,0-2-2.49,13.6,13.6,0,0,0-5.37-.82,15.59,15.59,0,0,0-4.49.62,8.7,8.7,0,0,0-3.25,1.86,9.83,9.83,0,0,0-2.3,3.23,12,12,0,0,0-.91,4.92,10.77,10.77,0,0,0,3.44,8.33,13,13,0,0,0,9.11,3.15,16.59,16.59,0,0,0,4.73-.65,11.25,11.25,0,0,0,3-1.4Z"/><path class="cls-1" d="M160.6,671.33v-1.16a10.82,10.82,0,0,0,1.83-.11,1.51,1.51,0,0,0,.67-.36,5.22,5.22,0,0,0,.89-1.37q.33-.65,2.42-4.81l4.66-9.64c.51-1,1.59-3.41,3.26-7.07h1.21l8,17.14q1.94,4.17,2.57,5.23a1.9,1.9,0,0,0,.78.79,6.14,6.14,0,0,0,1.89.2v1.16c-1.94-.11-3.29-.17-4.06-.17l-6,.17v-1.16a21,21,0,0,0,2.53-.12,1.21,1.21,0,0,0,.61-.25.56.56,0,0,0,.16-.4,2.51,2.51,0,0,0-.27-1l-2.29-5.23H168.63l-2,4.39a4.83,4.83,0,0,0-.54,1.73.53.53,0,0,0,.15.39,1.1,1.1,0,0,0,.63.31,15.3,15.3,0,0,0,2.42.15v1.16q-3.15-.15-4.71-.15C163.34,671.18,162,671.23,160.6,671.33Zm8.66-9.58h9.41L174,651.44Z"/><path class="cls-1" d="M189.39,671.33v-1.07A8.22,8.22,0,0,0,192,670a.62.62,0,0,0,.37-.32,5.78,5.78,0,0,0,.26-1.8c.07-1.5.11-2.8.11-3.89V650a2.33,2.33,0,0,0-.07-.74,2.76,2.76,0,0,0-.67-.73,1.68,1.68,0,0,0-.78-.35,16,16,0,0,0-1.94-.09v-1.08l3.91.07c.91,0,1.81,0,2.7-.07,1.06,1.26,1.83,2.2,2.33,2.8l3.85,4.36,5.63,6.22q2.7,3,4.34,4.68c.7.75,1.28,1.35,1.75,1.78V654.4c0-1.12,0-2.43-.13-3.93a6.15,6.15,0,0,0-.24-1.76.79.79,0,0,0-.39-.33,8.76,8.76,0,0,0-2.55-.25v-1.08c1.46,0,2.95.07,4.45.07s2.7,0,3.85-.07v1.08a8.76,8.76,0,0,0-2.55.25.65.65,0,0,0-.37.34,5.66,5.66,0,0,0-.26,1.8c-.08,1.5-.11,2.8-.11,3.88v8.22c0,1.66,0,4.77.09,9.31l-1.92-.51-.45-.09a.54.54,0,0,1-.2-.1,7.47,7.47,0,0,1-.71-.68c-1-1.07-1.79-1.88-2.27-2.43l-2.4-2.78-13.21-14.48V664c0,1.11,0,2.43.13,3.95a6,6,0,0,0,.24,1.74.76.76,0,0,0,.39.34,8.65,8.65,0,0,0,2.55.26v1.07c-1.09-.08-2.29-.12-3.61-.12S191.08,671.25,189.39,671.33Z"/><path class="cls-1" d="M236.07,671.33v-.91a9.46,9.46,0,0,0,1.47-.76,1.05,1.05,0,0,0,.24-.51,19.94,19.94,0,0,0,.22-2.49c.06-1.27.09-2.24.09-2.9V652c0-1.28,0-2.78-.12-4.49a6.41,6.41,0,0,0-.3-2,.93.93,0,0,0-.45-.37,10,10,0,0,0-2.91-.29v-1.23c.46,0,1.05,0,1.76,0l4.43.1,7.83-.18a15.19,15.19,0,0,1,4.79.59,5.21,5.21,0,0,1,2.63,1.9,4.84,4.84,0,0,1,.95,2.93,5.41,5.41,0,0,1-.56,2.42,6.32,6.32,0,0,1-1.51,2,8.24,8.24,0,0,1-2.11,1.35,17,17,0,0,1-3,.95,23.13,23.13,0,0,1,4,.63,7,7,0,0,1,2.56,1.25,5.46,5.46,0,0,1,1.57,2,6.5,6.5,0,0,1,.53,2.65,7.52,7.52,0,0,1-1.91,5.1,11.3,11.3,0,0,1-4.9,3.25,16.13,16.13,0,0,1-5.3.78l-6.18-.15Q238.89,671.18,236.07,671.33Zm6.09-16.25q1.22.06,2.13.06a16.94,16.94,0,0,0,4.06-.37,6.06,6.06,0,0,0,2.22-1,4.71,4.71,0,0,0,1.31-1.64,5.26,5.26,0,0,0,.52-2.42,3.87,3.87,0,0,0-1.69-3.52,9.21,9.21,0,0,0-4.94-1.08,19.71,19.71,0,0,0-3.42.29,46.54,46.54,0,0,0-.19,5Zm.06,14.24a15.32,15.32,0,0,0,3.36.35,10.93,10.93,0,0,0,4.53-.79,5.63,5.63,0,0,0,2.64-2.39,7.18,7.18,0,0,0,.93-3.67,6.4,6.4,0,0,0-.87-3.45,5.15,5.15,0,0,0-2.61-2.07,17.15,17.15,0,0,0-5.7-.67c-.61,0-1.39,0-2.34.07v7.41C242.16,664.82,242.18,666.56,242.22,669.32Z"/><path class="cls-1" d="M259.46,648.14v-1.09l2.21.05,3.58.09c.71,0,1.81,0,3.3-.07,1.94-.07,3.06-.1,3.37-.1a16.73,16.73,0,0,1,5.19.58,5,5,0,0,1,3.42,4.73,5.52,5.52,0,0,1-.84,2.85,6.64,6.64,0,0,1-2.43,2.36,13.37,13.37,0,0,1-4.15,1.45c.31.4,1.05,1.29,2.2,2.67l4.69,5.67c1.35,1.59,2.13,2.47,2.35,2.65a1,1,0,0,0,.34.17,5,5,0,0,0,1.23.09v1.09c-.95-.06-1.77-.1-2.48-.1s-1.63,0-2.7.1q-1.22-1.27-4.06-5-1.59-2.07-2.8-3.46c-1.3-1.52-2.54-2.91-3.72-4.15l.18-.51c.65,0,1.14,0,1.47,0a7.85,7.85,0,0,0,5.15-1.47,4.83,4.83,0,0,0,1.75-3.88,4.12,4.12,0,0,0-1.51-3.34,7.08,7.08,0,0,0-4.57-1.24,13.66,13.66,0,0,0-3.76.53c-.05.62-.09,1.19-.11,1.73,0,.16-.06,1.81-.13,5v7.59c0,1.55,0,3.06.07,4.53a4.86,4.86,0,0,0,.26,1.93,1.27,1.27,0,0,0,.69.45,14,14,0,0,0,2.69.18v1.09c-1.77-.09-3.39-.13-4.87-.13q-1.79,0-6,.13v-1.09a13.89,13.89,0,0,0,2.68-.18,1.26,1.26,0,0,0,.67-.4,4.07,4.07,0,0,0,.28-1.66c0-.24,0-1.86.07-4.85v-7.91c0-1.55,0-3.07-.05-4.55a5.09,5.09,0,0,0-.27-1.92,1.27,1.27,0,0,0-.69-.45A15.86,15.86,0,0,0,259.46,648.14Z"/><path class="cls-1" d="M284.51,671.33v-1.07a8.22,8.22,0,0,0,2.57-.28.62.62,0,0,0,.37-.32,5.48,5.48,0,0,0,.26-1.8c.08-1.5.12-2.8.12-3.89v-8.73c0-1.55,0-3.07-.06-4.55a5.09,5.09,0,0,0-.27-1.92,1.27,1.27,0,0,0-.69-.45,15.86,15.86,0,0,0-2.69-.18v-1.09l5.31.1,5.62-.08c2.7,0,4.65-.05,5.87-.05a31.85,31.85,0,0,1,3.48.18,15.53,15.53,0,0,0-.41,1.69c0,.11-.13,1.29-.33,3.56h-1.17a16.54,16.54,0,0,0-.25-3.18,9,9,0,0,0-2.25-.53,36.44,36.44,0,0,0-4.17-.24c-.3,0-1,0-2,.07l-2.21.12c-.05,1.26-.09,2.45-.12,3.55l-.07,5.78c1.45.07,2.79.1,4,.1a34,34,0,0,0,3.79-.18,1.19,1.19,0,0,0,.76-.28,3.81,3.81,0,0,0,.3-1.4l.11-1.2h1.12v.33l-.1,3.55.1,4h-1.31l-.05-1.17a3.77,3.77,0,0,0-.25-1.57,1.3,1.3,0,0,0-.81-.43,27.54,27.54,0,0,0-4.12-.2c-.83,0-2,0-3.54.08-.06,1.14-.09,2.84-.09,5.08s0,3.71.09,4.8c1.79.13,3.79.19,6,.19a28.64,28.64,0,0,0,3.37-.14,8.17,8.17,0,0,0,1.86-.46,9.86,9.86,0,0,0,.45-1.43c.27-1,.45-1.78.54-2.29h1.23a43.25,43.25,0,0,0-.49,5.72,28.51,28.51,0,0,1-3.89.22l-11.12-.13Z"/><path class="cls-1" d="M306.23,671.33v-1.16a10.82,10.82,0,0,0,1.83-.11,1.57,1.57,0,0,0,.67-.36,5.22,5.22,0,0,0,.89-1.37q.33-.65,2.42-4.81l4.66-9.64q.75-1.57,3.26-7.07h1.21L329.12,664q1.94,4.17,2.57,5.23a1.89,1.89,0,0,0,.77.79,6.14,6.14,0,0,0,1.89.2v1.16c-1.93-.11-3.29-.17-4.06-.17l-6,.17v-1.16a21,21,0,0,0,2.54-.12,1.13,1.13,0,0,0,.6-.25.52.52,0,0,0,.16-.4,2.47,2.47,0,0,0-.26-1L325,663.2H314.25l-2,4.39a4.83,4.83,0,0,0-.54,1.73.53.53,0,0,0,.15.39,1.17,1.17,0,0,0,.64.31,15.2,15.2,0,0,0,2.42.15v1.16q-3.15-.15-4.71-.15C309,671.18,307.65,671.23,306.23,671.33Zm8.66-9.58h9.4l-4.65-10.31Z"/><path class="cls-1" d="M346.18,670.24v1.09l-5.63-.13c-.38,0-2.14,0-5.27.13v-1.09a14,14,0,0,0,2.69-.18,1.3,1.3,0,0,0,.67-.4,4,4,0,0,0,.27-1.66c0-.24,0-1.86.08-4.85v-7.91c0-1.55,0-3.07-.06-4.55a4.68,4.68,0,0,0-.27-1.92,1.27,1.27,0,0,0-.69-.45,15.75,15.75,0,0,0-2.69-.18v-1.09c2.41.07,4.26.1,5.54.1s3.05,0,5.36-.1v1.09a15.8,15.8,0,0,0-2.68.18,1.12,1.12,0,0,0-.65.4,3.52,3.52,0,0,0-.3,1.66c0,.23,0,1.85-.08,4.86v3.52a11.46,11.46,0,0,0,2.39-1.73l2.35-2.08,4.15-3.82c1.6-1.47,2.59-2.41,3-2.83v-1.25c1.48,0,2.64.07,3.48.07s1.89,0,2.93-.07v1.11a13.38,13.38,0,0,0-2.39.14,3.82,3.82,0,0,0-1.21.51c-.79.54-2,1.49-3.65,2.87l-7.43,6.24,11.18,9.6c1.8,1.55,2.82,2.4,3.07,2.53a3.41,3.41,0,0,0,1.43.22v1.06c-1.21,0-2-.06-2.44-.06l-2.9.06c-.29-.26-1.32-1.18-3.11-2.75l-1.92-1.69-8.46-7.28-.43.22v3.32c0,1.55,0,3.06.08,4.53a4.94,4.94,0,0,0,.25,1.93,1.26,1.26,0,0,0,.7.45A13.81,13.81,0,0,0,346.18,670.24Z"/><path class="cls-1" d="M361.94,648.14v-1.09c1.88.07,3.49.1,4.8.1.93,0,2.6,0,5-.07s4-.06,4.88-.06,1.74,0,2.49,0,1.43.05,2,.09a22.15,22.15,0,0,0-.6,5.18h-1.17a19.76,19.76,0,0,0-.46-3.18,12.88,12.88,0,0,0-2.4-.45,32.16,32.16,0,0,0-3.3-.14,37.47,37.47,0,0,0-3.9.2c-.07.62-.12,1.19-.15,1.73,0,.31,0,1.61-.09,3.91v3.79q2.09.06,3.69.06a25,25,0,0,0,3.78-.23,1.12,1.12,0,0,0,.7-.28,4.57,4.57,0,0,0,.34-1.44l.15-1.06h1.18l-.14,3.89.14,4.19h-1.18l-.13-1.09a11,11,0,0,0-.3-2,1.06,1.06,0,0,0-.7-.36,30.85,30.85,0,0,0-4.81-.22c-.88,0-1.79,0-2.72.07v3.45c0,1.55,0,3.06.07,4.53a4.86,4.86,0,0,0,.26,1.93,1.27,1.27,0,0,0,.69.45,14,14,0,0,0,2.69.18v1.09c-1.58-.09-3.15-.13-4.72-.13q-2.1,0-6.14.13v-1.09a13.89,13.89,0,0,0,2.68-.18,1.26,1.26,0,0,0,.67-.4,4.07,4.07,0,0,0,.28-1.66c0-.24,0-1.86.07-4.85v-7.91c0-1.55,0-3.07-.05-4.55a5.09,5.09,0,0,0-.27-1.92,1.31,1.31,0,0,0-.69-.45A16,16,0,0,0,361.94,648.14Z"/><path class="cls-1" d="M382.07,671.33v-1.16a11.08,11.08,0,0,0,1.84-.11,1.63,1.63,0,0,0,.67-.36,5.28,5.28,0,0,0,.88-1.37q.33-.65,2.42-4.81l4.66-9.64q.76-1.57,3.26-7.07H397L405,664c1.3,2.78,2.15,4.52,2.58,5.23a1.83,1.83,0,0,0,.77.79,6.14,6.14,0,0,0,1.89.2v1.16c-1.94-.11-3.29-.17-4.06-.17l-6,.17v-1.16a21,21,0,0,0,2.53-.12,1.21,1.21,0,0,0,.61-.25.56.56,0,0,0,.16-.4,2.65,2.65,0,0,0-.26-1l-2.3-5.23H390.1l-2,4.39a4.83,4.83,0,0,0-.54,1.73.53.53,0,0,0,.15.39,1.13,1.13,0,0,0,.63.31,15.3,15.3,0,0,0,2.42.15v1.16q-3.15-.15-4.71-.15C384.82,671.18,383.5,671.23,382.07,671.33Zm8.66-9.58h9.41l-4.66-10.31Z"/><path class="cls-1" d="M411.39,670.5a35.44,35.44,0,0,0,.35-5.32H413a11.18,11.18,0,0,0,.31,3,2.69,2.69,0,0,0,1,1,9.12,9.12,0,0,0,2.2.91,9.44,9.44,0,0,0,2.66.4,7.63,7.63,0,0,0,3.47-.79,5.32,5.32,0,0,0,2.31-2.09,5.57,5.57,0,0,0,.72-2.76,4.85,4.85,0,0,0-.36-1.95,3,3,0,0,0-1.11-1.32,4.79,4.79,0,0,0-1.84-.71c-.46-.07-1.38-.18-2.76-.34s-2.55-.34-3.52-.53a8.3,8.3,0,0,1-2.85-1.28,5.42,5.42,0,0,1-1.48-1.94,5.87,5.87,0,0,1-.57-2.58,6.88,6.88,0,0,1,1.15-3.8,7.5,7.5,0,0,1,3.39-2.78,11.91,11.91,0,0,1,4.87-1,17,17,0,0,1,3.45.39,16.68,16.68,0,0,1,3.5,1.13,17.49,17.49,0,0,0-.38,2c-.07.62-.13,1.54-.16,2.75h-1.27a17.15,17.15,0,0,0-.17-2.88,4.51,4.51,0,0,0-1.27-1.11,8.58,8.58,0,0,0-4-1,6.07,6.07,0,0,0-4.31,1.51,5.12,5.12,0,0,0-1.61,3.92,3.82,3.82,0,0,0,.57,2.25,4,4,0,0,0,2.07,1.27,20.16,20.16,0,0,0,3.35.61c1.56.19,3,.39,4.2.6a7.38,7.38,0,0,1,2.58,1.14,5,5,0,0,1,1.38,1.72,5.52,5.52,0,0,1,.54,2.51A7.48,7.48,0,0,1,426,669.3a12.09,12.09,0,0,1-7.95,2.53A16.44,16.44,0,0,1,411.39,670.5Z"/><path class="cls-1" d="M431.43,652.71h-1.16c0-2.73-.07-4.61-.18-5.66l6.37.17c2.35,0,3.91.07,4.69.07s2.8,0,5.87-.1c2.22-.05,3.84-.1,4.86-.14-.15,1.27-.25,3.16-.3,5.66h-1.19l-.15-1.64c-.1-1-.16-1.56-.2-1.7a.61.61,0,0,0-.16-.29.82.82,0,0,0-.31-.13c-.17,0-.79-.08-1.86-.14s-1.91-.09-2.53-.09H442.9a42.79,42.79,0,0,0-.18,4.43v10c0,1.55,0,3.06,0,4.53a5.2,5.2,0,0,0,.27,1.93,1.35,1.35,0,0,0,.69.45,14,14,0,0,0,2.69.18v1.09c-2.22-.09-3.89-.13-5-.13-.48,0-2.42,0-5.81.13v-1.09a14,14,0,0,0,2.7-.18,1.19,1.19,0,0,0,.66-.4,3.7,3.7,0,0,0,.29-1.66c0-.24,0-1.86.08-4.85v-10c0-.47,0-1,0-1.57l-.11-2.89H436.4a34.58,34.58,0,0,0-3.82.17.82.82,0,0,0-.57.23,5.62,5.62,0,0,0-.38,1.86Z"/><path class="cls-1" d="M461.17,40c-3.38-2.88-8.47-1.83-11.76.36-3,2-29.77,10.9-47.48,14.06-4.8.85-10.68,1.37-16.9,1.91-10.76.94-22.95,2-33.55,5.19-19.15,5.77-34.63,21.25-40,33.56a4,4,0,0,0-.2,2.6,3.5,3.5,0,0,0-2.44,3.8c5.94,45.31-11.3,67.18-22.11,76.19a1.51,1.51,0,0,0-.23.21c-.19.19-17.28,16.95-43.15,16.95a60.46,60.46,0,0,1-8.55-.61c-21.4-3-27.85-9.73-34.09-16.19a50.42,50.42,0,0,0-10.6-9c-6.18-3.71-14.38-6.64-22.31-9.48-8.87-3.17-18-6.46-20.78-9.8a15.8,15.8,0,0,1-3.41-11.93A12.69,12.69,0,0,1,149,129c7.69-5.41,16.4-6.45,20.08-5.84a3.5,3.5,0,0,0,1.15-6.9,29.27,29.27,0,0,0-9.61.4,3.5,3.5,0,0,0,.52-4.69c-.37-.5-9.22-12.31-29.92-17.81-13.4-3.56-29-1.62-45.54.43C77,95.63,68.06,96.74,59.44,97c-25.26.77-45.32-1.35-48.24-2.13A9.11,9.11,0,0,0,2.66,97,7.62,7.62,0,0,0,.1,103.88c1.14,6.25,16.68,15.49,27,17.55A114,114,0,0,0,39,123.05a19.21,19.21,0,0,0,11,14.58,18.75,18.75,0,0,0,8.5,2.11,17.93,17.93,0,0,0,3.05-.27c1.2,4.36,4.27,11.84,11.64,15a19.63,19.63,0,0,0,7.83,1.6l.4,0a14.34,14.34,0,0,0,2.16,8.77c2.38,3.92,6.44,5,10.61,5a47.69,47.69,0,0,0,8.78-1.08l1.45-.27a16.59,16.59,0,0,0,1.92,11.61c1.81,2.93,5.08,4,9.1,4,5.1,0,11.42-1.77,17.48-3.79l1.69-.57a61.23,61.23,0,0,1,14.63-3.51,8.94,8.94,0,0,1-.27,1.5,7.65,7.65,0,0,1-.66,1.15c-1.18,1.83-3.63,5.64-.1,10.63,1.64,2.33,4.41,3.14,7.77,3.14,4,0,8.75-1.14,13.44-2.25,2.2-.52,4.28-1,5.6-1.19,5.45-.71,13.68-.65,18.19.85a3.5,3.5,0,1,0,2.21-6.64c-5.82-1.94-15.12-2-21.3-1.15-1.68.22-3.83.73-6.32,1.32-3.3.78-12,2.85-13.95,1.77-.72-1-.65-1.14.34-2.69a11.4,11.4,0,0,0,1.48-2.92,17.8,17.8,0,0,0,.63-3.76,85.86,85.86,0,0,1,13.4,1.45,3.5,3.5,0,0,0,1.24-6.89c-20.26-3.66-30.42-.21-38.58,2.56l-1.65.56c-16.48,5.49-18.4,2.76-18.42,2.73-2-3.22-1-7.32-.32-9.36,1.54-.35,3.19-.74,4.88-1.15,5-1.18,10.64-2.53,13.14-2.65a112.09,112.09,0,0,1,12.5.49,3.5,3.5,0,1,0,.65-7,116.89,116.89,0,0,0-13.5-.51c-3.14.15-8.61,1.46-14.41,2.84-3.89.92-7.91,1.88-10.13,2.18-1.06.15-2.21.36-3.43.59-4.42.84-10.48,2-12.11-.69a7.39,7.39,0,0,1-.83-6.32c1.62-.47,3.17-1,4.62-1.51a46.08,46.08,0,0,1,5.45-1.68l2.81-.62c6.71-1.51,19.2-4.32,24.14-2.31a3.5,3.5,0,1,0,2.64-6.48c-6.44-2.62-17.52-.47-28.31,2l-2.75.61A54.16,54.16,0,0,0,91,146.74c-5.13,1.8-10,3.49-15.09,1.29-4.82-2.06-6.9-7.58-7.71-10.63.75-.32,1.49-.65,2.19-1a30.75,30.75,0,0,1,6.07-2.25c6.27-1.25,19.32-3.86,26-1.18a3.5,3.5,0,1,0,2.6-6.5c-8.64-3.45-22.53-.67-30,.82a35.71,35.71,0,0,0-7.57,2.73c-4.82,2.17-9,4-14.43,1.32a12.66,12.66,0,0,1-6.85-7.83c2.89.13,5.79.21,8.6.21a96,96,0,0,0,16.42-1.14,3.5,3.5,0,1,0-1.3-6.88c-8.31,1.57-28.67,1.4-41.5-1.16-10.43-2.09-19.67-9.47-21.4-12a2,2,0,0,1,.66-.65,2.14,2.14,0,0,1,1.66-.29c4.57,1.22,25.86,3.11,50.25,2.37,8.95-.27,18.06-1.41,26.87-2.5,15.84-2,30.79-3.83,42.88-.62,18.11,4.82,26,15,26.08,15.2a3.43,3.43,0,0,0,1.91,1.28A40.42,40.42,0,0,0,145,123.24a19.72,19.72,0,0,0-8.28,13.61,22.9,22.9,0,0,0,4.92,17.3c4,4.85,13.18,8.15,23.85,12,7.6,2.73,15.47,5.54,21.06,8.89a44.34,44.34,0,0,1,9.16,7.87c5.3,5.49,11.16,11.55,25,15.53a13.28,13.28,0,0,0-1,7c.81,7.27,9,12.68,21,13.76,1.57.15,3.28.22,5.1.22,10.13,0,23.57-2.3,34.78-7.91,13.29-6.64,16.05-17.23,16.16-17.68a3.52,3.52,0,0,0-.69-3.06,19.84,19.84,0,0,1-3.37-8.93c11.93-10.6,29.25-34.48,23.15-81.18a4,4,0,0,0,3-2.34c3.76-8.6,16.18-23.45,35-29.11,9.82-3,21.57-4,31.94-4.88,6.41-.56,12.46-1.09,17.61-2,16.63-3,45.64-12,50.52-15.27a4.45,4.45,0,0,1,1.54-.67,9.41,9.41,0,0,1-.4,1c-2.67,5.87-9.61,14.08-20.36,17.88-13.14,4.64-27.71,7.92-32.49,7.3a4,4,0,1,0-1,7.94c6.79.87,20.63-2.71,30.33-5.75a12,12,0,0,1-2.74,5.42c-4,4.62-10.9,6.49-14.55,6.61-2.71.1-6.78,0-11.09-.17-7.36-.23-14.31-.45-17.81.25-6.12,1.22-9.11,4.39-9.44,4.74a4,4,0,0,0,5.95,5.36,10.6,10.6,0,0,1,5.06-2.26c2.59-.52,10-.28,16-.09l5,.14a38.78,38.78,0,0,1-.64,7.5c-.47,1.77-4.08,4.78-9.64,5.85-3.62.7-9.71.51-15.61.32-3.73-.11-7.59-.24-11-.14a29.91,29.91,0,0,0-16.31,5.07,4,4,0,0,0,4.83,6.38,22.35,22.35,0,0,1,11.71-3.45c3.16-.09,6.91,0,10.52.14a132.3,132.3,0,0,0,13.83,0c.52,2.26.67,5.15-1.15,6.91-.48.45-3.78,2.69-22.46,2.21a97.56,97.56,0,0,0-16.4,1c-1.55.21-2.89.39-3.95.46a12.82,12.82,0,0,0-9.29,5.21,4,4,0,0,0,6.58,4.56,4.79,4.79,0,0,1,3.21-1.79c1.34-.08,2.81-.28,4.51-.51a88.89,88.89,0,0,1,15.14-1c2,.05,3.87.07,5.63.07,1.1,2,2.69,5.56,1.35,7.14-2.51,1.79-14.38,3.15-35.3,4a40.26,40.26,0,0,0-21.25,6.81A4,4,0,0,0,327,158a31,31,0,0,1,11.53-4.58,3.87,3.87,0,0,0-.1,1.92,8.15,8.15,0,0,0,3.08,4.48c1.72,1.52,1.72,1.52,1,2.94s-4,3.56-18,1.86l-1.91-.21c-4-.3-10.58,2.62-12.5,3.52a4,4,0,1,0,3.4,7.24c3.29-1.54,7.34-2.87,8.49-2.78l1.55.17c6.48.79,21.66,2.63,26.09-6.22,3.45-6.91-1-10.84-2.87-12.51-.23-.2-.52-.47-.7-.64a4.37,4.37,0,0,0-.23-.49c25.42-1.14,35.26-2.8,38.64-6.42,2.21-2.37,4-6.44,1.51-13,7.16-.57,11.55-1.92,13.93-4.21,4.46-4.3,4.38-10,3.43-14.29,6-2.14,10.4-6.07,11.57-10.48a45,45,0,0,0,.91-9.63c5-.5,13.36-2.85,18.93-9.27a20.25,20.25,0,0,0,5-13.55c11.72-4.92,19.28-14,22.54-21.17C465.16,44.31,462.46,41.07,461.17,40ZM277.4,205.2a73.26,73.26,0,0,1-36.12,7c-8.09-.73-14.26-3.92-14.67-7.57a5.88,5.88,0,0,1,1.15-4.5c1.89.37,3.9.72,6,1a68.24,68.24,0,0,0,9.69.7c20.44,0,35.73-9.3,43.09-14.9a27,27,0,0,0,2.82,6.49C288.3,195.9,285.13,201.34,277.4,205.2Z"/><path class="cls-1" d="M90.7,78c11.54,1.16,32.13-6.63,37-8.78,22.93-10.09,27.91-8.54,28.67-8.12,1.47.79,2.19,3.35,3,6.3,1.3,4.57,2.91,10.24,8.65,13.5,6.3,3.57,17.7.7,30.84-3.12l.72-.21c-.25.46-.52.92-.8,1.34-1.33.59-2.51,1.15-3.51,1.69-9.72,5.18-17.5,13.34-26,27.26a3.5,3.5,0,1,0,6,3.65c7.82-12.78,14.79-20.18,23.33-24.73,9-4.81,38.29-13.93,56.25-14.26,17.24-.31,29.29,1.9,36.88,6.78,8.71,5.6,11.41,8.19,11.42,8.2a3.5,3.5,0,0,0,4.95-5c-.3-.3-3.21-3.11-12.59-9.14-8.78-5.65-22.13-8.22-40.79-7.89-13.41.25-33.14,5.11-47,9.94a5.25,5.25,0,0,0-.88-3.72c-1-1.33-2.91-2.67-6.76-1.59L197,71c-7.41,2.15-21.19,6.16-25.43,3.75-3.25-1.84-4.29-5.48-5.38-9.32s-2.38-8.35-6.44-10.55c-5.24-2.84-16-.41-34.82,7.88-7.47,3.28-25,9.07-33.49,8.22-11.19-1.12-18.16-4.71-24.08-12.4a3.5,3.5,0,0,0-5.55,4.26C70.79,74.6,82,77.11,90.7,78Z"/><path class="cls-1" d="M125.74,52.72c7.18-.91,16.77-3.65,26-6.3,7.52-2.15,15.3-4.37,21.44-5.5,8.63-1.6,10.12-.29,10.15-.27,1.74,2.71,1.93,5.17,2.14,8,.29,3.87.66,8.68,5.87,12.81,6.65,5.28,14.44,3,20.12,1.4a29.17,29.17,0,0,1,4.86-1.15c3.46-.3,9.74,2.07,12.88,3.64a3.5,3.5,0,1,0,3.13-6.26c-1-.51-10.06-4.93-16.62-4.36a34.32,34.32,0,0,0-6.19,1.4c-4.92,1.42-10,2.88-13.83-.15-2.81-2.23-3-4.35-3.24-7.85-.23-3.17-.53-7.1-3.24-11.31-4.36-6.76-17.81-3.33-39.39,2.84-9,2.58-18.34,5.24-25,6.09-7.93,1-23-3.24-30.3-15.56a3.5,3.5,0,0,0-6,3.56C97.49,49,115.68,54,125.74,52.72Z"/><path class="cls-1" d="M185.06,24c8.67,3.26,19.51,1.66,29.07.24,7.57-1.12,15.4-2.28,18.4-.16,2,1.42,2.06,2.3.45,7.28-1.4,4.3-3.3,10.19,0,16.84S244.56,54.9,251.87,55c5.29.08,10.77.16,13.41,2.41,3.52,3,5.08,4.44,5.76,5.12a3.47,3.47,0,0,0,1.83,1.9,3.71,3.71,0,0,0,1.55.34,3.54,3.54,0,0,0,3-1.65c1.6-2.54-.53-4.64-1.56-5.65-1.19-1.18-3.22-3-6.06-5.4-4.55-3.87-11.31-4-17.84-4.07-5.57-.08-11.34-.17-12.71-2.91-2-4.08-.87-7.71.38-11.56,1.44-4.46,3.42-10.56-3.07-15.15-5.29-3.73-13.71-2.49-23.46-1-8.72,1.29-18.61,2.75-25.58.13C174.08,12.4,170,2.65,169.8,2.21a3.5,3.5,0,0,0-6.51,2.57C163.5,5.3,168.55,17.8,185.06,24Z"/><path class="cls-1" d="M173.62,138.75a3.5,3.5,0,0,0,.36-7c-1.2-.07-7.39-.22-10.87,3.08a7.31,7.31,0,0,0-2.31,5.41c0,6.6,6.84,8.93,10.52,10.18a18.37,18.37,0,0,1,2.18.82,25.6,25.6,0,0,1,4.47,3.87,3.5,3.5,0,0,0,5.16-4.73,32.21,32.21,0,0,0-6-5.14,18.54,18.54,0,0,0-3.53-1.45c-2.3-.78-5.77-2-5.77-3.55,0-.21,0-.24.12-.33C168.87,139,171.84,138.66,173.62,138.75Z"/><path class="cls-1" d="M255.55,139.5c47.43-13,51.37-35.25,47.87-43.25-6-13.65-35.16-23.8-76.75-12.37-35.5,9.75-46.69,26.63-44.87,38.87C184.05,137.88,213.55,151,255.55,139.5Zm-1.26-24.15a2,2,0,0,1,2.78.52c.68,1,6.55,9.85,2.17,14.39-1.57,1.63-5,1.58-13.16,1.05-2.85-.19-7.07-.46-8.39-.19a13.23,13.23,0,0,0,0,3.14c.19,2.34.38,4.75-1.24,6.13a6.11,6.11,0,0,1-3.94,1c-4.68,0-11.29-2.21-12.74-2.81-3.16-1.3-5.68-3.6-6.58-6a4.45,4.45,0,0,1,0-3.62c1.45-2.89,5.37-2.52,8.29-1.33a2,2,0,1,1-1.51,3.7,6.5,6.5,0,0,0-3.21-.53c0,.56,1.19,2.73,4.48,4.08,4.27,1.76,10.77,2.88,12.48,2.45a15.38,15.38,0,0,0-.06-2.76c-.2-2.41-.42-5.14,1.43-6.64,1.42-1.15,4.19-1.09,11.18-.63,3.31.21,8.79.57,10.11.06,1.39-1.76-1-6.85-2.68-9.25A2,2,0,0,1,254.29,115.35Zm-44.83,1.17a2.69,2.69,0,0,1,1.23-1.83c1.51-1,4-.5,5-.25a2,2,0,0,1-1,3.88l-.46-.1a13,13,0,0,0,3.59,2.57c2.91,1.45,8,3.37,10.16,3.52-.22-.49-.57-1.11-.82-1.55-1-1.83-2.21-3.91-1.51-6,1-2.9,5-2.29,11.12-1.36,2.72.42,7.22,1.1,8.39.66.65-1-1.07-5.54-3.52-9.17a2,2,0,1,1,3.31-2.24c6.41,9.48,4,13.31,3,14.25-1.79,1.88-5.66,1.4-11.82.46a48.19,48.19,0,0,0-6.62-.74,15.41,15.41,0,0,0,1.09,2.19c1.08,1.91,2.55,4.52.57,6.5a4.13,4.13,0,0,1-3,1c-4,0-10-2.81-12.18-3.89C212.5,122.6,208.93,119.39,209.46,116.52Z"/></svg>